<?xml version="1.0" encoding="iso-8859-1"?>
<!-- Generator: Adobe Illustrator 19.0.0, SVG Export Plug-In . SVG Version: 6.00 Build 0)  -->
<svg version="1.1" id="Layer_1" xmlns="http://www.w3.org/2000/svg" xmlns:xlink="http://www.w3.org/1999/xlink" x="0px" y="0px"
	 viewBox="0 0 512 512" style="enable-background:new 0 0 512 512;" xml:space="preserve" fill="#b87aff">
<g>
	<g>
		<path d="M480.663,421.536L332.851,131.94V41.402c11.13-1.593,17.821-10.163,17.821-20.557C350.671,9.32,341.598,0,330.071,0
			h-149.18c-11.526,0-21.144,9.32-21.144,20.846c0,10.393,7.537,18.964,17.276,20.558v90.579L31.102,421.756
			c-9.81,19.445-8.714,42.101,2.702,60.648S65.175,512,86.955,512h338.513c21.828,0,41.536-11.087,52.942-29.7
			C489.815,463.687,490.574,440.988,480.663,421.536z M442.956,460.491c-1.805,2.945-7.121,9.77-17.489,9.77H86.955
			c-10.344,0-15.662-6.802-17.468-9.736s-5.505-10.745-0.846-19.98l148.16-294.201c1.471-2.916,1.963-6.129,1.963-9.396V41.739
			h72.348v95.211c0,3.293,1.049,6.539,2.545,9.473l149.952,294.049C448.316,449.711,444.761,457.546,442.956,460.491z"/>
	</g>
</g>
<g>
	<g>
		<path d="M412.185,420.224l-87.779-172.199c-3.565-6.989-10.746-11.503-18.591-11.503H205.732c-7.872,0-15.073,4.545-18.625,11.57
			l-86.987,172.15c-3.27,6.47-2.948,14.301,0.849,20.476c3.797,6.175,10.527,10.065,17.777,10.065h274.848
			c7.263,0,14.003-3.875,17.798-10.067C415.184,434.521,415.484,426.694,412.185,420.224z M152.677,409.043l65.889-130.783h74.464
			l66.489,130.783H152.677z"/>
	</g>
</g>
</svg>
